<?xml version="1.0" encoding="UTF-8"?>
<svg id="Layer_2" data-name="Layer 2" xmlns="http://www.w3.org/2000/svg" viewBox="0 0 248 246">
  <defs>
    <style>
      .cls-1 {
        fill: #009444;
      }

      .cls-1, .cls-2, .cls-3, .cls-4 {
        stroke: #231f20;
      }

      .cls-2 {
        fill: #ed1c24;
      }

      .cls-3 {
        fill: #fff200;
      }

      .cls-4 {
        fill: #2379b8;
      }
    </style>
  </defs>
  <g id="Layer_1-2" data-name="Layer 1">
    <g>
      <path class="cls-3" d="m134.2,130.51l95.59,94.27c6.58,6.49,17.71,1.83,17.71-7.41V28.83c0-9.24-11.14-13.89-17.71-7.41l-95.59,94.27c-4.13,4.08-4.13,10.74,0,14.82Z"/>
      <path class="cls-4" d="m130.91,113.8L225.18,18.21c6.49-6.58,1.83-17.71-7.41-17.71H29.23c-9.24,0-13.89,11.14-7.41,17.71l94.27,95.59c4.08,4.13,10.74,4.13,14.82,0Z"/>
      <path class="cls-1" d="m116.09,132.2L21.82,227.79c-6.49,6.58-1.83,17.71,7.41,17.71h188.54c9.24,0,13.89-11.14,7.41-17.71l-94.27-95.59c-4.08-4.13-10.74-4.13-14.82,0Z"/>
      <path class="cls-2" d="m113.8,115.7L18.21,21.43C11.64,14.94.5,19.6.5,28.83v188.54c0,9.24,11.14,13.89,17.71,7.41l95.59-94.27c4.13-4.08,4.13-10.74,0-14.82Z"/>
    </g>
  </g>
</svg>