<?xml version="1.0" encoding="UTF-8"?>
<svg id="Layer_2" data-name="Layer 2" xmlns="http://www.w3.org/2000/svg" viewBox="0 0 159 159">
  <defs>
    <style>
      .cls-1 {
        fill: #39b54a;
        stroke: #231f20;
        stroke-miterlimit: 10;
      }
    </style>
  </defs>
  <g id="Layer_1-2" data-name="Layer 1">
    <g>
      <rect class="cls-1" x="39.5" y="39.5" width="34" height="34" rx="15" ry="15"/>
      <rect class="cls-1" x="86.5" y="39.5" width="34" height="34" rx="15" ry="15"/>
      <rect class="cls-1" x="39.5" y="84.5" width="34" height="34" rx="15" ry="15"/>
      <g>
        <path class="cls-1" d="m147.36.5H11.64C5.49.5.5,5.49.5,11.64v135.72c0,6.15,4.99,11.14,11.14,11.14h135.72c6.15,0,11.14-4.99,11.14-11.14V11.64c0-6.15-4.99-11.14-11.14-11.14Zm-21,136H33.64c-6.15,0-11.14-4.99-11.14-11.14V32.64c0-6.15,4.99-11.14,11.14-11.14h92.72c6.15,0,11.14,4.99,11.14,11.14v92.72c0,6.15-4.99,11.14-11.14,11.14Z"/>
        <rect class="cls-1" x="86.5" y="84.5" width="34" height="34" rx="15" ry="15"/>
      </g>
    </g>
  </g>
</svg>